<?xml version="1.0" encoding="UTF-8"?>
<svg width="340px" height="80px" viewBox="0 0 340 80" version="1.1" xmlns="http://www.w3.org/2000/svg" xmlns:xlink="http://www.w3.org/1999/xlink">
    <!-- Generator: Sketch 63.1 (92452) - https://sketch.com -->
    <title>TA Logo_340 x 80</title>
    <desc>Created with Sketch.</desc>
    <defs>
        <polygon id="path-1" points="0.0788895042 0.0880657986 259.384962 0.0880657986 259.384962 45.9408619 0.0788895042 45.9408619"></polygon>
    </defs>
    <g id="TA-Logo_340-x-80" stroke="none" stroke-width="1" fill="none" fill-rule="evenodd">
        <g id="Group-8" transform="translate(2.000000, 4.000000)">
            <path d="M35.6974341,0 C55.4125387,0 71.3948579,15.9823192 71.3948579,35.6974238 C71.3948579,55.4125285 55.4125387,71.3948477 35.6974341,71.3948477 C15.9823294,71.3948477 1.02414e-05,55.4125285 1.02414e-05,35.6974238 C1.02414e-05,15.9823192 15.9823294,0 35.6974341,0" id="Fill-1" fill="#34E0A1"></path>
            <path d="M27.2011687,38.4625609 C27.2016807,41.0428816 25.1103868,43.1351996 22.5300661,43.1358142 C19.9497454,43.1363262 17.8575298,41.0450323 17.8569151,38.4647116 C17.8563008,35.8842884 19.9476971,33.7920728 22.5280178,33.7915607 L22.529042,33.7915607 C25.108953,33.7915607 27.2005542,35.8827522 27.2011687,38.4625609 L27.2011687,38.4625609 Z M48.8658262,33.7874642 C46.2855055,33.7879763 44.1941092,35.8801919 44.1947235,38.4605126 C44.1953381,41.0409357 46.2875538,43.1322296 48.8678745,43.1317176 C51.446659,43.1311031 53.537236,41.0413454 53.538977,38.4625609 C53.538977,35.8828546 51.4476831,33.7915607 48.8678745,33.7915607 L48.8658262,33.7915607 L48.8658262,33.7874642 Z M48.8658262,47.3705306 C43.9449359,47.3705306 39.9558082,43.3814029 39.9558082,38.4605126 C39.9558082,33.5397247 43.9449359,29.5504946 48.8658262,29.5504946 C53.7867165,29.5504946 57.7758452,33.5397247 57.7758452,38.4605126 C57.7780973,43.3814029 53.7907106,47.372374 48.8699228,47.3747296 L48.8658262,47.3747296 L48.8658262,47.3705306 Z M35.7005065,38.2025317 C35.7005065,32.3371795 31.4349634,27.3056821 25.8093624,25.1538616 C32.1389572,22.5163938 39.2600075,22.5163938 45.5896023,25.1538616 C39.9650255,27.3107004 35.7005065,32.3392278 35.7005065,38.2065259 L35.7005065,38.2025317 Z M22.529042,47.3705306 C17.6081517,47.3705306 13.619024,43.3814029 13.619024,38.4605126 C13.619024,33.5397247 17.6081517,29.5504946 22.529042,29.5504946 C27.4499322,29.5504946 31.4390609,33.5397247 31.4390609,38.4605126 C31.4413131,43.3814029 27.4540288,47.372374 22.5331385,47.3747296 L22.529042,47.3747296 L22.529042,47.3705306 Z M57.7440959,28.7311826 L62.0526528,24.0436938 L52.5004991,24.0436938 C42.369911,17.1487737 29.0536331,17.1487737 18.923045,24.0436938 L9.34733602,24.0436938 L13.655893,28.7322067 C8.24269862,33.5891907 7.79187219,41.914732 12.6487537,47.327824 C17.5057377,52.7411208 25.8313814,53.1919472 31.2444734,48.3349632 C31.3225128,48.2650145 31.3996306,48.1940416 31.475929,48.1222494 L35.7005065,52.7196138 L39.917915,48.1244 C45.190495,53.1351074 53.5268922,52.9228032 58.5377019,47.6502232 C63.5484093,42.3775409 63.3362075,34.0411437 58.0635251,29.0304363 C57.9567073,28.9288416 57.8481485,28.8291928 57.737951,28.7311826 L57.7440959,28.7311826 Z" id="Fill-3" fill="#000000"></path>
            <g id="Group-7" transform="translate(75.991188, 13.223696)">
                <mask id="mask-2" fill="white">
                    <use xlink:href="#path-1"></use>
                </mask>
                <g id="Clip-6"></g>
                <path d="M250.712575,15.3887174 L250.712575,10.8271978 L243.721693,10.8271978 L243.721693,37.9720285 L250.717696,37.9720285 L250.717696,21.6953715 C250.717696,18.7468725 252.609282,17.3007868 255.557781,17.3007868 L259.384993,17.3007868 L259.384993,10.8271978 L256.113787,10.8271978 C253.553437,10.8271978 251.324908,12.1616523 250.712575,15.3887174 L250.712575,15.3887174 Z M162.254531,30.5388204 L156.046092,10.8271978 L148.715298,10.8271978 L158.027803,37.9720285 L166.425751,37.9720285 L175.793662,10.8323185 L168.462868,10.8323185 L162.254531,30.5388204 Z M26.8499091,1.16443694 L0.0788895042,1.16443694 L0.0788895042,7.39120814 L9.98949228,7.39120814 L9.98949228,37.9720285 L16.9434029,37.9720285 L16.9434029,7.39120814 L26.8529815,7.39120814 L26.8499091,1.16443694 Z M234.075421,24.3991011 C234.076035,20.1897833 230.664113,16.7770416 226.454795,16.7764271 C222.245477,16.7758126 218.832736,20.187735 218.832121,24.3970528 C218.831507,28.6064731 222.243429,32.0192148 226.452747,32.0197269 L226.453771,32.0197269 C230.662679,32.0197269 234.074806,28.6080093 234.075421,24.3991011 L234.075421,24.3991011 Z M240.484489,24.3991011 C240.484489,32.148154 234.202721,38.4298191 226.453771,38.4298191 C218.70482,38.4298191 212.423053,32.148154 212.423053,24.3991011 C212.423053,16.6501506 218.70482,10.3683831 226.453771,10.3683831 C234.202721,10.3683831 240.484489,16.6501506 240.484489,24.3991011 L240.484489,24.3991011 Z M182.201706,0.0880657986 C179.815357,0.0880657986 177.971905,1.97965238 177.971905,4.36794686 C178.008262,6.70308847 179.930573,8.56681844 182.265714,8.53056389 C184.549854,8.49512864 186.392896,6.6520863 186.428333,4.36794686 C186.43038,1.97965238 184.593994,0.0880657986 182.201706,0.0880657986 L182.201706,0.0880657986 Z M178.713382,37.9720285 L185.690848,37.9720285 L185.690848,10.8323185 L178.713382,10.8323185 L178.713382,37.9720285 Z M139.325061,24.3991011 C139.326187,20.1892712 135.914265,16.7755054 131.704435,16.7743785 C127.494502,16.7732523 124.080839,20.1850723 124.079712,24.3950046 C124.078586,28.6049369 127.490406,32.0186003 131.700338,32.0197269 L131.703411,32.0197269 C135.912319,32.0197269 139.324446,28.6080093 139.325061,24.3991011 L139.325061,24.3991011 Z M139.32506,1.16443694 L146.30355,1.16443694 L146.30355,37.9720285 L139.32506,37.9720285 L139.32506,35.6770332 C136.957761,37.4767544 134.062619,38.4447716 131.088927,38.4309915 C123.339976,38.4309915 117.058209,32.1490757 117.058209,24.4001253 C117.058209,16.6511748 123.339976,10.3694073 131.088927,10.3694073 C134.062619,10.355479 136.957761,11.3235985 139.32506,13.1233197 L139.32506,1.16443694 Z M107.144534,24.4001253 L107.144534,24.4001253 C107.146274,20.1902954 103.734762,16.7761199 99.5249318,16.7743782 C95.3149995,16.7727402 91.900824,20.1841505 91.8991847,24.3939804 C91.8974443,28.6039127 95.3088546,32.0179858 99.5187869,32.0197269 L99.5227811,32.0197269 C103.731587,32.0192148 107.143304,28.6078044 107.144534,24.3991011 L107.144534,24.4001253 Z M107.144533,10.8271978 L114.121999,10.8271978 L114.121999,37.9720285 L107.144533,37.9720285 L107.144533,35.6770332 C104.777234,37.476652 101.88199,38.4446691 98.9082971,38.4309893 C91.159449,38.4309893 84.8776815,32.1490757 84.8776815,24.4001253 C84.8776815,16.6511748 91.159449,10.3692569 98.9082971,10.3692569 C101.8824,10.3553765 104.777951,11.3233937 107.145558,13.1233197 L107.144533,10.8271978 Z M203.69738,22.0179756 L199.626424,20.9006389 C196.947273,20.2042237 195.903572,19.3808151 195.903572,17.9664778 C195.903572,16.5859371 197.370141,15.6222213 199.469628,15.6222213 C201.468852,15.6222213 203.034762,16.9320964 203.034762,18.604517 L203.034762,18.7591621 L209.467385,18.7591621 L209.467385,18.6034929 C209.467385,13.6773795 205.449684,10.367359 199.469628,10.367359 C193.54508,10.367359 189.244716,13.674307 189.244716,18.2307059 C189.244716,21.7773027 191.595118,24.4472357 195.696798,25.5574035 L199.595699,26.6204608 C202.558536,27.4397728 203.659487,28.3512574 203.659487,29.9806641 C203.659487,31.7012193 202.067973,32.8574734 199.698113,32.8574734 C197.227888,32.8574734 195.567757,31.2956599 195.567757,28.9657414 L195.567757,28.8111987 L188.739815,28.8111987 L188.739815,28.9657414 C188.739815,34.5350147 193.222374,38.4246984 199.641683,38.4246984 C205.828513,38.4246984 210.318343,34.625139 210.318343,29.3907595 C210.315373,26.8365543 209.167312,23.4773751 203.69738,22.0179756 L203.69738,22.0179756 Z M75.3593243,24.3991011 C75.3598364,20.1897833 71.9480164,16.7770416 67.7386986,16.7764271 C63.5293808,16.7758126 60.1165367,20.187735 60.1160246,24.3970528 C60.1154101,28.6064731 63.5273325,32.0192148 67.7366503,32.0197269 L67.7376745,32.0197269 C71.9465826,32.0197269 75.3587099,28.6080093 75.3593243,24.3991011 L75.3593243,24.3991011 Z M82.3839006,24.3991011 C82.3839006,32.148154 76.1021331,38.4298191 68.3531826,38.4298191 C65.3794897,38.4437474 62.4842459,37.4756279 60.1170487,35.6759067 L60.1170487,45.9408619 L53.1385588,45.9408619 L53.1385588,10.8271978 L60.1170487,10.8271978 L60.1170487,13.1222956 C62.4842459,11.3225744 65.3794897,10.3544548 68.3531826,10.3682349 C76.1021331,10.3682349 82.3839006,16.6501506 82.3839006,24.3991011 L82.3839006,24.3991011 Z M42.1577297,37.9720285 L49.1351955,37.9720285 L49.1351955,10.8323185 L42.1577297,10.8323185 L42.1577297,37.9720285 Z M45.6459505,0.0880657986 C43.2545836,0.0880657986 41.4183006,1.97965238 41.4183006,4.37204342 C41.45476,6.70718503 43.3772756,8.57071018 45.7124172,8.53425079 C47.9962494,8.49861072 49.8389845,6.6557732 49.8745222,4.37204342 C49.8745222,1.97965238 48.0383416,0.0880657986 45.6459505,0.0880657986 L45.6459505,0.0880657986 Z M30.4241577,15.3887174 L30.4241577,10.8271978 L23.4292815,10.8271978 L23.4292815,37.9720285 L30.4251818,37.9720285 L30.4251818,21.6953715 C30.4251818,18.7468725 32.3167684,17.3007868 35.2652675,17.3007868 L39.0924787,17.3007868 L39.0924787,10.8271978 L35.8213755,10.8271978 C33.2610255,10.8271978 31.0365934,12.1616523 30.4241577,15.3887174 L30.4241577,15.3887174 Z" id="Fill-5" fill="#000000" mask="url(#mask-2)"></path>
            </g>
        </g>
    </g>
</svg>